<svg width="13" height="13" viewBox="0 0 13 13" fill="none" xmlns="http://www.w3.org/2000/svg">
<path fill-rule="evenodd" clip-rule="evenodd" d="M12.9961 12.25L6.5 1L0.00390625 12.25H12.9961ZM11.2617 11.25L6.5 3L1.73828 11.25H11.2617Z" fill="#00D1FF"/>
<path d="M4.45613 4.94469C4.69938 5.28415 5.02378 5.55726 5.39973 5.73909C5.77568 5.92092 6.19118 6.00568 6.60831 5.98563C7.02544 5.96557 7.4309 5.84134 7.78767 5.62428C8.14444 5.40723 8.44115 5.10425 8.6507 4.74303L8.01964 4.37693C7.87124 4.63274 7.66112 4.84729 7.40846 5.00101C7.15581 5.15473 6.86868 5.2427 6.57328 5.2569C6.27788 5.27111 5.98363 5.21108 5.71739 5.08231C5.45116 4.95355 5.22142 4.76013 5.04916 4.51974L4.45613 4.94469Z" fill="#00D1FF"/>
</svg>
